# xmcd
# 
# Track frame offsets:
#     150
#     20766
#     38118
#     57829
#     74637
#     94687
#     110801
#     131044
#     150135
#     166361
#     185709
# 
# Disc length: 2764
# 
# Revision: 1
# Processed by: cddbd v1.5.2PL0 Copyright (c) Steve Scherf et al.
# Submitted via: fre:ac v1.0.17
# 
DISCID=980aca0b
DTITLE=Beth Hart - My California
DYEAR=2010
DGENRE=Blues
TTITLE0=My California
TTITLE1=Life Is Callin
TTITLE2=Happiness ...Any Day Now
TTITLE3=Love Is The Hardest
TTITLE4=Bad Love Is Good Enough
TTITLE5=Drive
TTITLE6=Sister Heroine
TTITLE7=Take It Easy On Me
TTITLE8=Like You (And Everyone Else)
TTITLE9=Everybody So Sober
TTITLE10=Weight Of The World
EXTD=
EXTT0=
EXTT1=
EXTT2=
EXTT3=
EXTT4=
EXTT5=
EXTT6=
EXTT7=
EXTT8=
EXTT9=
EXTT10=
PLAYORDER=
